<svg width="120" height="48" viewBox="0 0 120 48" fill="none" xmlns="http://www.w3.org/2000/svg">
<path d="M0 24C0 10.7452 10.7452 0 24 0C37.2548 0 48 10.7452 48 24C48 37.2548 37.2548 48 24 48C10.7452 48 0 37.2548 0 24Z" fill="white"/>
<path d="M24.0016 17.6213C25.9545 17.6213 27.2718 18.4649 28.0229 19.1698L30.958 16.304C29.1554 14.6284 26.8096 13.6 24.0016 13.6C19.934 13.6 16.4212 15.9342 14.7109 19.3315L18.0736 21.9431C18.9172 19.4355 21.2514 17.6213 24.0016 17.6213V17.6213Z" fill="#EA4335"/>
<path d="M33.984 24.2311C33.984 23.376 33.9147 22.752 33.7644 22.1049H24V25.9644H29.7316C29.616 26.9235 28.992 28.368 27.6053 29.3386L30.8871 31.8809C32.8516 30.0666 33.984 27.3973 33.984 24.2311V24.2311Z" fill="#4285F4"/>
<path d="M18.0851 26.0569C17.8656 25.4098 17.7385 24.7164 17.7385 24C17.7385 23.2835 17.8656 22.5902 18.0736 21.9431L14.7109 19.3315C14.006 20.7413 13.6016 22.3244 13.6016 24C13.6016 25.6755 14.006 27.2587 14.7109 28.6684L18.0851 26.0569V26.0569Z" fill="#FBBC05"/>
<path d="M24.0018 34.4C26.8098 34.4 29.1671 33.4756 30.8889 31.8809L27.6071 29.3387C26.7289 29.9511 25.5502 30.3787 24.0018 30.3787C21.2515 30.3787 18.9173 28.5644 18.0853 26.0569L14.7227 28.6684C16.4329 32.0658 19.9342 34.4 24.0018 34.4V34.4Z" fill="#34A853"/>
<path d="M53.6 22.642V23.818H57.198C56.932 25.344 55.672 26.408 53.712 26.408C52.564 26.408 51.626 26.044 50.898 25.316C50.184 24.588 49.82 23.678 49.82 22.6C49.82 21.522 50.184 20.612 50.898 19.884C51.612 19.142 52.536 18.778 53.656 18.778C55.014 18.778 56.232 19.478 56.792 20.542L57.912 19.884C57.506 19.17 56.918 18.61 56.162 18.176C55.406 17.742 54.58 17.518 53.67 17.518C52.2 17.518 50.968 18.008 49.988 19.002C49.022 19.982 48.532 21.186 48.532 22.6C48.532 24.014 49.022 25.218 49.988 26.212C50.968 27.192 52.2 27.682 53.698 27.682C55.14 27.682 56.302 27.262 57.184 26.422C58.066 25.568 58.5 24.504 58.5 23.23V22.642H53.6ZM65.8652 26.618C66.5792 25.904 66.9432 25.036 66.9432 24C66.9432 22.964 66.5792 22.096 65.8652 21.382C65.1512 20.668 64.2692 20.318 63.2472 20.318C62.2252 20.318 61.3432 20.668 60.6292 21.382C59.9152 22.096 59.5652 22.964 59.5652 24C59.5652 25.036 59.9152 25.904 60.6292 26.618C61.3432 27.332 62.2252 27.682 63.2472 27.682C64.2692 27.682 65.1512 27.332 65.8652 26.618ZM63.2472 26.492C62.5612 26.492 61.9732 26.254 61.4972 25.778C61.0212 25.302 60.7832 24.714 60.7832 24C60.7832 23.286 61.0212 22.698 61.4972 22.222C61.9732 21.746 62.5612 21.508 63.2472 21.508C63.9472 21.508 64.5352 21.746 65.0112 22.222C65.4872 22.698 65.7252 23.286 65.7252 24C65.7252 24.714 65.4872 25.302 65.0112 25.778C64.5352 26.254 63.9472 26.492 63.2472 26.492ZM74.2871 26.618C75.0011 25.904 75.3651 25.036 75.3651 24C75.3651 22.964 75.0011 22.096 74.2871 21.382C73.5731 20.668 72.6911 20.318 71.6691 20.318C70.6471 20.318 69.7651 20.668 69.0511 21.382C68.3371 22.096 67.9871 22.964 67.9871 24C67.9871 25.036 68.3371 25.904 69.0511 26.618C69.7651 27.332 70.6471 27.682 71.6691 27.682C72.6911 27.682 73.5731 27.332 74.2871 26.618ZM71.6691 26.492C70.9831 26.492 70.3951 26.254 69.9191 25.778C69.4431 25.302 69.2051 24.714 69.2051 24C69.2051 23.286 69.4431 22.698 69.9191 22.222C70.3951 21.746 70.9831 21.508 71.6691 21.508C72.3691 21.508 72.9571 21.746 73.4331 22.222C73.9091 22.698 74.1471 23.286 74.1471 24C74.1471 24.714 73.9091 25.302 73.4331 25.778C72.9571 26.254 72.3691 26.492 71.6691 26.492ZM82.611 21.704C82.009 20.78 81.127 20.318 79.979 20.318C78.985 20.318 78.131 20.668 77.445 21.382C76.759 22.082 76.409 22.936 76.409 23.958C76.409 24.98 76.759 25.834 77.445 26.548C78.131 27.262 78.985 27.612 79.979 27.612C81.113 27.612 81.995 27.15 82.611 26.212V27.206C82.611 28.536 81.729 29.348 80.273 29.348C79.139 29.348 78.369 28.956 77.991 28.172L76.927 28.774C77.501 29.88 78.677 30.482 80.245 30.482C81.225 30.482 82.065 30.188 82.765 29.614C83.465 29.04 83.815 28.242 83.815 27.206V20.5H82.611V21.704ZM82.611 23.958C82.611 24.672 82.373 25.26 81.897 25.736C81.421 26.212 80.833 26.45 80.119 26.45C79.405 26.45 78.817 26.212 78.341 25.736C77.865 25.26 77.627 24.672 77.627 23.958C77.627 23.258 77.865 22.67 78.341 22.194C78.817 21.718 79.405 21.48 80.119 21.48C80.833 21.48 81.421 21.718 81.897 22.194C82.373 22.67 82.611 23.258 82.611 23.958ZM86.8783 27.5V17.28H85.6603V27.5H86.8783ZM95.4565 24.56C95.4845 24.378 95.4985 24.196 95.4985 24.014C95.4985 22.992 95.1765 22.124 94.5185 21.41C93.8745 20.682 93.0345 20.318 92.0125 20.318C90.9345 20.318 90.0525 20.668 89.3665 21.368C88.6805 22.068 88.3445 22.95 88.3445 24C88.3445 25.064 88.6945 25.946 89.3805 26.646C90.0805 27.332 90.9905 27.682 92.0965 27.682C93.4685 27.682 94.4905 27.15 95.1765 26.1L94.1405 25.512C93.7205 26.198 93.0485 26.534 92.1245 26.534C90.7945 26.534 89.8285 25.806 89.5905 24.56H95.4565ZM92.0125 21.466C93.1325 21.466 94.0565 22.166 94.2665 23.496H89.5905C89.8005 22.264 90.7105 21.466 92.0125 21.466Z" fill="#595959"/>
</svg>
