<svg width="137" height="48" viewBox="0 0 137 48" fill="none" xmlns="http://www.w3.org/2000/svg">
<path d="M0 24C0 10.7452 10.7452 0 24 0C37.2548 0 48 10.7452 48 24C48 37.2548 37.2548 48 24 48C10.7452 48 0 37.2548 0 24Z" fill="white"/>
<path d="M26.5 38.1115V25.0542H30.1044L30.582 20.5546H26.5L26.5061 18.3025C26.5061 17.1289 26.6176 16.5001 28.3032 16.5001H30.5565V12H26.9516C22.6216 12 21.0975 14.1828 21.0975 17.8536V20.5551H18.3984V25.0547H21.0975V38.1115H26.5Z" fill="#3B5998"/>
<path d="M54.692 17.7H49.05V27.5H50.352V23.342H54.51V22.11H50.352V18.932H54.692V17.7ZM61.9388 21.704C61.3368 20.78 60.4548 20.318 59.2928 20.318C58.3128 20.318 57.4728 20.682 56.7868 21.396C56.1008 22.11 55.7508 22.978 55.7508 24C55.7508 25.022 56.1008 25.904 56.7868 26.618C57.4728 27.332 58.3128 27.682 59.2928 27.682C60.4548 27.682 61.3368 27.22 61.9388 26.296V27.5H63.1568V20.5H61.9388V21.704ZM59.4468 26.506C58.7468 26.506 58.1588 26.268 57.6828 25.792C57.2068 25.302 56.9688 24.714 56.9688 24C56.9688 23.286 57.2068 22.698 57.6828 22.222C58.1588 21.732 58.7468 21.494 59.4468 21.494C60.1608 21.494 60.7488 21.732 61.2248 22.222C61.7008 22.698 61.9388 23.286 61.9388 24C61.9388 24.714 61.7008 25.302 61.2248 25.792C60.7488 26.268 60.1608 26.506 59.4468 26.506ZM68.2921 27.682C69.6501 27.682 70.8401 26.968 71.4421 25.862L70.4061 25.26C70.0141 26.002 69.2301 26.478 68.2921 26.478C67.5921 26.478 67.0041 26.24 66.5281 25.764C66.0661 25.288 65.8281 24.7 65.8281 24C65.8281 23.286 66.0661 22.698 66.5281 22.222C67.0041 21.746 67.5921 21.508 68.2921 21.508C69.2301 21.508 70.0141 21.998 70.3641 22.74L71.3861 22.152C70.8401 21.032 69.6781 20.318 68.2921 20.318C67.2421 20.318 66.3601 20.668 65.6601 21.382C64.9601 22.082 64.6101 22.95 64.6101 24C64.6101 25.05 64.9601 25.918 65.6601 26.632C66.3601 27.332 67.2421 27.682 68.2921 27.682ZM79.3784 24.56C79.4064 24.378 79.4204 24.196 79.4204 24.014C79.4204 22.992 79.0984 22.124 78.4404 21.41C77.7964 20.682 76.9564 20.318 75.9344 20.318C74.8564 20.318 73.9744 20.668 73.2884 21.368C72.6024 22.068 72.2664 22.95 72.2664 24C72.2664 25.064 72.6164 25.946 73.3024 26.646C74.0024 27.332 74.9124 27.682 76.0184 27.682C77.3904 27.682 78.4124 27.15 79.0984 26.1L78.0624 25.512C77.6424 26.198 76.9704 26.534 76.0464 26.534C74.7164 26.534 73.7504 25.806 73.5124 24.56H79.3784ZM75.9344 21.466C77.0544 21.466 77.9784 22.166 78.1884 23.496H73.5124C73.7224 22.264 74.6324 21.466 75.9344 21.466ZM84.6845 20.318C83.5225 20.318 82.6405 20.78 82.0385 21.704V17.7H80.8205V27.5H82.0385V26.296C82.6405 27.22 83.5225 27.682 84.6845 27.682C85.6645 27.682 86.5045 27.332 87.1905 26.618C87.8765 25.904 88.2265 25.022 88.2265 24C88.2265 22.978 87.8765 22.11 87.1905 21.396C86.5045 20.682 85.6645 20.318 84.6845 20.318ZM84.5305 26.506C83.8165 26.506 83.2285 26.268 82.7525 25.792C82.2765 25.302 82.0385 24.714 82.0385 24C82.0385 23.286 82.2765 22.698 82.7525 22.222C83.2285 21.732 83.8165 21.494 84.5305 21.494C85.2305 21.494 85.8185 21.732 86.2945 22.222C86.7705 22.698 87.0085 23.286 87.0085 24C87.0085 24.714 86.7705 25.302 86.2945 25.792C85.8185 26.268 85.2305 26.506 84.5305 26.506ZM95.5879 26.618C96.3019 25.904 96.6659 25.036 96.6659 24C96.6659 22.964 96.3019 22.096 95.5879 21.382C94.8739 20.668 93.9919 20.318 92.9699 20.318C91.9479 20.318 91.0659 20.668 90.3519 21.382C89.6379 22.096 89.2879 22.964 89.2879 24C89.2879 25.036 89.6379 25.904 90.3519 26.618C91.0659 27.332 91.9479 27.682 92.9699 27.682C93.9919 27.682 94.8739 27.332 95.5879 26.618ZM92.9699 26.492C92.2839 26.492 91.6959 26.254 91.2199 25.778C90.7439 25.302 90.5059 24.714 90.5059 24C90.5059 23.286 90.7439 22.698 91.2199 22.222C91.6959 21.746 92.2839 21.508 92.9699 21.508C93.6699 21.508 94.2579 21.746 94.7339 22.222C95.2099 22.698 95.4479 23.286 95.4479 24C95.4479 24.714 95.2099 25.302 94.7339 25.778C94.2579 26.254 93.6699 26.492 92.9699 26.492ZM104.01 26.618C104.724 25.904 105.088 25.036 105.088 24C105.088 22.964 104.724 22.096 104.01 21.382C103.296 20.668 102.414 20.318 101.392 20.318C100.37 20.318 99.4877 20.668 98.7737 21.382C98.0597 22.096 97.7097 22.964 97.7097 24C97.7097 25.036 98.0597 25.904 98.7737 26.618C99.4877 27.332 100.37 27.682 101.392 27.682C102.414 27.682 103.296 27.332 104.01 26.618ZM101.392 26.492C100.706 26.492 100.118 26.254 99.6417 25.778C99.1657 25.302 98.9277 24.714 98.9277 24C98.9277 23.286 99.1657 22.698 99.6417 22.222C100.118 21.746 100.706 21.508 101.392 21.508C102.092 21.508 102.68 21.746 103.156 22.222C103.632 22.698 103.87 23.286 103.87 24C103.87 24.714 103.632 25.302 103.156 25.778C102.68 26.254 102.092 26.492 101.392 26.492ZM108.988 23.888L112.334 20.5H110.766L107.742 23.594V17.7H106.524V27.5H107.742V24.182L110.934 27.5H112.446L108.988 23.888Z" fill="#595959"/>
</svg>
